HIERARCHY
ROOT pelvis
{
	OFFSET 0.000000 0.000000 0.000000
	CHANNELS 6 Xposition Yposition Zposition Xrotation Yrotation Zrotation
	JOINT l_hip
	{
		OFFSET 0.195211 -0.245059 -0.022011
		CHANNELS 3 Xrotation Yrotation Zrotation
		JOINT l_knee
		{
			OFFSET 0.083896 -0.996307 -0.018298
			CHANNELS 3 Xrotation Yrotation Zrotation
			JOINT l_ankle
			{
				OFFSET -0.031606 -1.048662 -0.119000
				CHANNELS 3 Xrotation Yrotation Zrotation
				JOINT l_foot
				{
					OFFSET 0.063841 -0.149483 0.312863
					CHANNELS 3 Xrotation Yrotation Zrotation
					End Site
					{
						OFFSET 0.000000 0.000000 0.000000
					}
				}
			}
		}
	}
	JOINT r_hip
	{
		OFFSET -0.188785 -0.243354 -0.013119
		CHANNELS 3 Xrotation Yrotation Zrotation
		JOINT r_knee
		{
			OFFSET -0.098896 -1.013926 -0.025127
			CHANNELS 3 Xrotation Yrotation Zrotation
			JOINT r_ankle
			{
				OFFSET 0.038376 -1.049454 -0.114596
				CHANNELS 3 Xrotation Yrotation Zrotation
				JOINT r_foot
				{
					OFFSET -0.060300 -0.126955 0.322518
					CHANNELS 3 Xrotation Yrotation Zrotation
					End Site
					{
						OFFSET 0.000000 0.000000 0.000000
					}
				}
			}
		}
	}
	JOINT spine1
	{
		OFFSET -0.006861 0.282462 -0.060688
		CHANNELS 3 Xrotation Yrotation Zrotation
		JOINT spine2
		{
			OFFSET 0.009796 0.349212 -0.004686
			CHANNELS 3 Xrotation Yrotation Zrotation
			JOINT spine3
			{
				OFFSET 0.005545 0.134239 0.076232
				CHANNELS 3 Xrotation Yrotation Zrotation
				JOINT neck
				{
					OFFSET -0.005369 0.569656 -0.136135
					CHANNELS 3 Xrotation Yrotation Zrotation
					JOINT head
					{
						OFFSET 0.009621 0.170484 0.137338
						CHANNELS 3 Xrotation Yrotation Zrotation
						End Site
						{
							OFFSET 0.000000 0.000000 0.000000
						}
					}
				}
				JOINT l_collar
				{
					OFFSET 0.205981 0.322192 -0.100872
					CHANNELS 3 Xrotation Yrotation Zrotation
					JOINT l_shoulder
					{
						OFFSET 0.233388 0.086823 -0.019950
						CHANNELS 3 Xrotation Yrotation Zrotation
						JOINT l_elbow
						{
							OFFSET 0.687295 -0.032736 -0.075278
							CHANNELS 3 Xrotation Yrotation Zrotation
							JOINT l_wrist
							{
								OFFSET 0.651109 0.024639 0.000120
								CHANNELS 3 Xrotation Yrotation Zrotation
								JOINT l_hand
								{
									OFFSET 0.217934 -0.026487 -0.036124
									CHANNELS 3 Xrotation Yrotation Zrotation
									End Site
									{
										OFFSET 0.000000 0.000000 0.000000
									}
								}
							}
						}
					}
				}
				JOINT r_collar
				{
					OFFSET -0.210726 0.316244 -0.114374
					CHANNELS 3 Xrotation Yrotation Zrotation
					JOINT r_shoulder
					{
						OFFSET -0.244017 0.089684 -0.026814
						CHANNELS 3 Xrotation Yrotation Zrotation
						JOINT r_elbow
						{
							OFFSET -0.672913 -0.035979 -0.055153
							CHANNELS 3 Xrotation Yrotation Zrotation
							JOINT r_wrist
							{
								OFFSET -0.670689 0.023586 -0.009661
								CHANNELS 3 Xrotation Yrotation Zrotation
								JOINT r_hand
								{
									OFFSET -0.219937 -0.019827 -0.028502
									CHANNELS 3 Xrotation Yrotation Zrotation
									End Site
									{
										OFFSET 0.000000 0.000000 0.000000
									}
								}
							}
						}
					}
				}
			}
		}
	}
}
MOTION
Frames: 13
Frame Time: 0.016667
0.000000 0.000000 0.000000 0.000000 0.000000 0.000000 -35.952902 -9.015761 -5.700451 35.289305 -5.639433 -12.290285 0.000000 0.000000 0.000000 0.000000 0.000000 0.000000 23.065807 -12.318867 1.566699 79.038621 2.734548 3.397123 0.000000 0.000000 0.000000 0.000000 0.000000 0.000000 11.122166 11.797722 -8.507887 2.331458 2.231991 -3.254754 1.039009 3.827693 -2.004905 -17.706127 -13.908030 4.630641 -18.786817 -14.978250 5.765566 4.919014 5.323277 -12.296134 13.260784 -8.100887 -40.154131 127.957678 -52.736525 126.031705 0.000000 0.000000 0.000000 0.000000 0.000000 0.000000 -1.206396 7.511439 8.240092 9.298001 15.452542 54.298206 60.222966 63.569600 -55.540510 0.000000 0.000000 0.000000 0.000000 0.000000 0.000000 
0.000000 0.000000 0.000000 0.000000 0.000000 0.000000 -36.616016 -8.047562 -6.218439 44.001658 -6.693477 -14.496939 0.000000 0.000000 0.000000 0.000000 0.000000 0.000000 17.342036 -12.335405 -0.114896 89.917108 2.491648 4.125219 0.000000 0.000000 0.000000 0.000000 0.000000 0.000000 13.430186 9.553618 -9.217685 1.522712 1.167429 -3.764236 1.150056 2.020468 -2.678198 -18.980571 -14.223649 5.402762 -18.297385 -13.659436 7.143158 4.110247 1.969242 -15.000497 8.663643 -11.773405 -41.369503 126.956434 -51.410047 128.302306 0.000000 0.000000 0.000000 0.000000 0.000000 0.000000 -1.276055 7.152017 10.185385 12.211882 13.621890 56.340538 55.024586 61.313563 -49.384008 0.000000 0.000000 0.000000 0.000000 0.000000 0.000000 
0.000000 0.000000 0.000000 0.000000 0.000000 0.000000 -35.132651 -7.941914 -7.224093 47.382659 -8.847719 -15.591531 0.000000 0.000000 0.000000 0.000000 0.000000 0.000000 10.631382 -11.521718 -1.996972 99.880515 2.946348 4.696537 0.000000 0.000000 0.000000 0.000000 0.000000 0.000000 15.451952 6.988472 -9.494747 1.191645 0.023029 -4.684338 0.882596 0.162945 -3.409522 -20.304831 -14.177853 6.171660 -18.253991 -12.875366 9.008976 2.487609 -1.582853 -16.464332 3.158204 -16.471801 -43.475978 124.891415 -49.837078 129.755062 0.000000 0.000000 0.000000 0.000000 0.000000 0.000000 -1.289340 6.355548 10.270175 15.258805 11.512113 59.583033 54.094761 58.042166 -47.593497 0.000000 0.000000 0.000000 0.000000 0.000000 0.000000 
0.000000 0.000000 0.000000 0.000000 0.000000 0.000000 -31.935732 -7.393936 -8.845846 47.865259 -11.238502 -15.129024 0.000000 0.000000 0.000000 0.000000 0.000000 0.000000 3.332106 -9.994535 -3.809425 107.913806 3.664241 5.821736 0.000000 0.000000 0.000000 0.000000 0.000000 0.000000 17.985582 3.542765 -8.789762 -1.909129 -1.258421 -5.880207 0.486250 -1.638921 -4.321693 -19.211841 -14.233293 6.685208 -19.015467 -11.295465 10.612694 0.862049 -3.649910 -16.424753 -3.067625 -21.152425 -44.400389 123.204240 -49.035155 129.359026 0.000000 0.000000 0.000000 0.000000 0.000000 0.000000 -0.215325 4.797994 8.815493 18.962422 9.866149 63.272983 50.650751 56.375601 -42.713915 0.000000 0.000000 0.000000 0.000000 0.000000 0.000000 
0.000000 0.000000 0.000000 0.000000 0.000000 0.000000 -26.414309 -5.908147 -8.609507 48.371945 -13.580122 -13.362767 0.000000 0.000000 0.000000 0.000000 0.000000 0.000000 -4.189101 -8.089958 -4.747089 113.858640 3.898737 6.283399 0.000000 0.000000 0.000000 0.000000 0.000000 0.000000 20.578057 1.266106 -7.604351 -2.684642 -1.464204 -6.021197 0.517377 -3.734612 -3.689560 -18.292080 -14.663013 5.845114 -21.196929 -8.924857 11.950512 -0.567592 -7.952685 -15.267194 -10.669834 -24.864125 -47.198928 119.135430 -46.403337 127.295554 0.000000 0.000000 0.000000 0.000000 0.000000 0.000000 0.369058 4.080726 5.495498 22.153238 7.189386 66.298849 54.527561 54.502934 -44.657683 0.000000 0.000000 0.000000 0.000000 0.000000 0.000000 
0.000000 0.000000 0.000000 0.000000 0.000000 0.000000 -18.730127 -4.165329 -8.331941 45.972375 -18.831086 -11.159942 0.000000 0.000000 0.000000 0.000000 0.000000 0.000000 -11.931247 -5.266596 -6.812644 117.514737 4.478976 8.711820 0.000000 0.000000 0.000000 0.000000 0.000000 0.000000 24.388594 -2.130202 -3.538840 -5.814703 -1.917374 -8.263502 -0.495817 -5.635851 -3.409896 -13.740036 -15.882753 4.410143 -24.337640 -4.521334 14.437823 -0.996154 -12.017435 -15.108118 -12.792402 -27.756802 -46.659598 115.609433 -46.996967 130.568740 0.000000 0.000000 0.000000 0.000000 0.000000 0.000000 1.013235 3.941686 -0.996217 26.906464 7.286887 70.376942 59.624400 53.069189 -46.394281 0.000000 0.000000 0.000000 0.000000 0.000000 0.000000 
0.000000 0.000000 0.000000 0.000000 0.000000 0.000000 -11.823730 -2.790523 -6.764793 43.583167 -22.550294 -9.014816 0.000000 0.000000 0.000000 0.000000 0.000000 0.000000 -19.416642 -1.940870 -7.373607 118.511289 3.881817 10.192741 0.000000 0.000000 0.000000 0.000000 0.000000 0.000000 26.023790 -5.178390 -0.578169 -7.933115 -2.558883 -8.287493 -0.491753 -7.059875 -2.679488 -11.278055 -15.408810 2.483551 -27.395706 -0.556914 16.167722 -1.745024 -14.604676 -14.067773 -15.305642 -30.831606 -44.458366 116.068430 -48.288427 135.405298 0.000000 0.000000 0.000000 0.000000 0.000000 0.000000 1.306328 2.575611 -4.234682 30.889281 6.571381 68.077011 71.442255 50.907177 -53.797921 0.000000 0.000000 0.000000 0.000000 0.000000 0.000000 
0.000000 0.000000 0.000000 0.000000 0.000000 0.000000 -6.315522 -1.568874 -5.066788 39.898085 -25.076426 -7.651629 0.000000 0.000000 0.000000 0.000000 0.000000 0.000000 -28.096416 1.419596 -6.999347 117.900897 3.675666 10.146771 0.000000 0.000000 0.000000 0.000000 0.000000 0.000000 25.553067 -8.035790 1.303815 -9.182440 -2.947672 -7.512401 0.031212 -7.873435 -1.913038 -12.173303 -13.318968 0.423287 -28.324164 1.859129 17.079457 -2.614704 -16.137777 -10.720394 -16.593896 -32.165273 -41.665530 117.577169 -48.999757 139.675683 0.000000 0.000000 0.000000 0.000000 0.000000 0.000000 0.807995 1.841881 -6.755250 33.987478 4.460546 65.108577 76.085134 50.750075 -53.890180 0.000000 0.000000 0.000000 0.000000 0.000000 0.000000 
0.000000 0.000000 0.000000 0.000000 0.000000 0.000000 0.018589 -0.272970 -3.395355 34.538035 -27.277024 -6.181415 0.000000 0.000000 0.000000 0.000000 0.000000 0.000000 -34.891954 3.331904 -5.466611 114.676251 4.981375 9.386933 0.000000 0.000000 0.000000 0.000000 0.000000 0.000000 24.196036 -10.762196 2.849103 -8.812119 -3.861079 -6.469443 0.260255 -8.553985 -1.113963 -14.990117 -9.312325 -0.558935 -27.388138 3.356137 16.961902 -3.560894 -17.646863 -7.929390 -15.963341 -31.544271 -37.337418 121.558872 -49.879920 144.319970 0.000000 0.000000 0.000000 0.000000 0.000000 0.000000 0.326330 1.729431 -7.914495 36.084457 0.304142 61.056774 81.682496 52.816581 -55.139842 0.000000 0.000000 0.000000 0.000000 0.000000 0.000000 
0.000000 0.000000 0.000000 0.000000 0.000000 0.000000 7.192540 0.799547 -2.281976 28.737528 -29.358456 -4.245138 0.000000 0.000000 0.000000 0.000000 0.000000 0.000000 -39.156576 4.919554 -4.746699 109.342716 4.869733 9.017809 0.000000 0.000000 0.000000 0.000000 0.000000 0.000000 23.230653 -13.188304 4.697931 -8.223271 -4.450385 -5.639122 0.397501 -9.183841 -0.390540 -17.148240 -5.272157 -1.064958 -26.193391 4.950468 16.314671 -3.802635 -17.897034 -4.889926 -15.362423 -31.023212 -34.070852 124.763460 -50.662805 147.431026 0.000000 0.000000 0.000000 0.000000 0.000000 0.000000 -0.474140 1.039051 -9.060583 37.695165 -3.087171 57.688205 82.838263 54.984898 -53.314079 0.000000 0.000000 0.000000 0.000000 0.000000 0.000000 
0.000000 0.000000 0.000000 0.000000 0.000000 0.000000 13.587154 1.771628 -1.396799 22.248383 -30.110403 -2.247264 0.000000 0.000000 0.000000 0.000000 0.000000 0.000000 -42.320569 6.227146 -3.661792 102.587906 4.774805 8.985529 0.000000 0.000000 0.000000 0.000000 0.000000 0.000000 20.388373 -15.251154 6.112388 -5.266922 -5.246005 -4.522238 0.621766 -9.302106 0.099084 -19.566927 -0.447448 -1.059944 -25.179063 5.306494 14.848359 -3.726966 -18.025455 -0.984528 -15.081231 -30.317087 -32.395562 126.900070 -51.115612 149.826310 0.000000 0.000000 0.000000 0.000000 0.000000 0.000000 -0.946795 0.296267 -10.326598 38.200339 -6.274968 55.817296 83.052013 56.427905 -52.799743 0.000000 0.000000 0.000000 0.000000 0.000000 0.000000 
0.000000 0.000000 0.000000 0.000000 0.000000 0.000000 18.274758 2.442486 -0.634173 16.261837 -29.648446 -0.184939 0.000000 0.000000 0.000000 0.000000 0.000000 0.000000 -44.418185 6.898759 -2.640260 94.037144 4.209711 9.289956 0.000000 0.000000 0.000000 0.000000 0.000000 0.000000 17.573599 -16.945112 7.629197 -3.622705 -6.003704 -3.407816 0.576833 -9.538819 0.777030 -20.745968 2.833822 -2.234912 -24.158196 6.510318 13.895123 -3.255600 -17.427850 2.436108 -14.458418 -29.281995 -32.100550 128.115707 -51.041924 150.749393 0.000000 0.000000 0.000000 0.000000 0.000000 0.000000 -0.589709 -0.995324 -11.689553 38.232287 -9.560671 53.816931 84.951428 56.666339 -53.915289 0.000000 0.000000 0.000000 0.000000 0.000000 0.000000 
0.000000 0.000000 0.000000 0.000000 0.000000 0.000000 22.704069 2.190717 -0.498584 10.015184 -29.501087 1.582739 0.000000 0.000000 0.000000 0.000000 0.000000 0.000000 -46.404174 8.231133 -1.339103 84.178958 1.422683 9.955947 0.000000 0.000000 0.000000 0.000000 0.000000 0.000000 15.909875 -18.339943 9.216411 -3.445639 -6.400006 -2.571006 0.562084 -9.922558 1.805178 -19.167854 2.564872 -5.348111 -26.078116 9.177637 15.042788 -1.830053 -16.898086 5.255728 -13.348815 -28.373802 -31.710243 128.731448 -52.011562 151.267836 0.000000 0.000000 0.000000 0.000000 0.000000 0.000000 -0.211457 -2.156390 -14.451867 38.520539 -10.650930 52.475578 87.517805 57.212834 -56.492767 0.000000 0.000000 0.000000 0.000000 0.000000 0.000000 
